<svg xmlns="http://www.w3.org/2000/svg" version="1.1" xmlns:xlink="http://www.w3.org/1999/xlink" xmlns:svgjs="http://svgjs.com/svgjs" width="1440" height="800" preserveAspectRatio="none" viewBox="0 0 1440 800"><g mask="url(&quot;#SvgjsMask4090&quot;)" fill="none"><rect width="1440" height="800" x="0" y="0" fill="rgba(243, 244, 244, 1)"></rect><path d="M112.52 39.9L177.48 77.4L177.48 152.4L112.52 189.9L47.57 152.4L47.57 77.4zM47.57 152.4L112.52 189.9L112.52 264.9L47.57 302.4L-17.38 264.9L-17.38 189.9zM112.52 264.9L177.48 302.4L177.48 377.4L112.52 414.9L47.57 377.4L47.57 302.4zM112.52 489.9L177.48 527.4L177.48 602.4L112.52 639.9L47.57 602.4L47.57 527.4zM177.48 152.4L242.43 189.9L242.43 264.9L177.48 302.4L112.52 264.9L112.52 189.9zM242.43 264.9L307.38 302.4L307.38 377.4L242.43 414.9L177.48 377.4L177.48 302.4zM177.48 377.4L242.43 414.9L242.43 489.9L177.48 527.4L112.52 489.9L112.52 414.9zM177.48 602.4L242.43 639.9L242.43 714.9L177.48 752.4L112.52 714.9L112.52 639.9zM242.43 714.9L307.38 752.4L307.38 827.4L242.43 864.9L177.48 827.4L177.48 752.4zM307.38 602.4L372.34 639.9L372.34 714.9L307.38 752.4L242.43 714.9L242.43 639.9zM502.25 39.9L567.2 77.4L567.2 152.4L502.25 189.9L437.29 152.4L437.29 77.4zM437.29 602.4L502.25 639.9L502.25 714.9L437.29 752.4L372.34 714.9L372.34 639.9zM567.2 377.4L632.15 414.9L632.15 489.9L567.2 527.4L502.25 489.9L502.25 414.9zM697.11 -72.6L762.06 -35.1L762.06 39.9L697.11 77.4L632.15 39.9L632.15 -35.1zM697.11 152.4L762.06 189.9L762.06 264.9L697.11 302.4L632.15 264.9L632.15 189.9zM762.06 714.9L827.02 752.4L827.02 827.4L762.06 864.9L697.11 827.4L697.11 752.4zM891.97 39.9L956.92 77.4L956.92 152.4L891.97 189.9L827.01 152.4L827.01 77.4zM827.01 152.4L891.97 189.9L891.97 264.9L827.01 302.4L762.06 264.9L762.06 189.9zM891.97 264.9L956.92 302.4L956.92 377.4L891.97 414.9L827.01 377.4L827.01 302.4zM827.01 377.4L891.97 414.9L891.97 489.9L827.01 527.4L762.06 489.9L762.06 414.9zM956.92 -72.6L1021.88 -35.1L1021.88 39.9L956.92 77.4L891.97 39.9L891.97 -35.1zM956.92 152.4L1021.88 189.9L1021.88 264.9L956.92 302.4L891.97 264.9L891.97 189.9zM1021.88 714.9L1086.83 752.4L1086.83 827.4L1021.88 864.9L956.92 827.4L956.92 752.4zM1086.83 377.4L1151.78 414.9L1151.78 489.9L1086.83 527.4L1021.88 489.9L1021.88 414.9zM1086.83 602.4L1151.78 639.9L1151.78 714.9L1086.83 752.4L1021.88 714.9L1021.88 639.9zM1151.78 714.9L1216.74 752.4L1216.74 827.4L1151.78 864.9L1086.83 827.4L1086.83 752.4zM1281.69 39.9L1346.64 77.4L1346.64 152.4L1281.69 189.9L1216.74 152.4L1216.74 77.4zM1216.74 152.4L1281.69 189.9L1281.69 264.9L1216.74 302.4L1151.78 264.9L1151.78 189.9zM1216.74 602.4L1281.69 639.9L1281.69 714.9L1216.74 752.4L1151.78 714.9L1151.78 639.9zM1281.69 714.9L1346.64 752.4L1346.64 827.4L1281.69 864.9L1216.74 827.4L1216.74 752.4zM1346.64 602.4L1411.6 639.9L1411.6 714.9L1346.64 752.4L1281.69 714.9L1281.69 639.9zM1411.6 714.9L1476.55 752.4L1476.55 827.4L1411.6 864.9L1346.64 827.4L1346.64 752.4zM1476.55 -72.6L1541.51 -35.1L1541.51 39.9L1476.55 77.4L1411.6 39.9L1411.6 -35.1zM1541.51 264.9L1606.46 302.4L1606.46 377.4L1541.51 414.9L1476.55 377.4L1476.55 302.4zM1476.55 377.4L1541.51 414.9L1541.51 489.9L1476.55 527.4L1411.6 489.9L1411.6 414.9zM1541.51 489.9L1606.46 527.4L1606.46 602.4L1541.51 639.9L1476.55 602.4L1476.55 527.4z" stroke="url(#SvgjsLinearGradient4091)" stroke-width="2"></path><path d="M27.49 -29.04L70.79 -4.04L70.79 45.96L27.49 70.96L-15.81 45.96L-15.81 -4.04zM157.4 645.96L200.7 670.96L200.7 720.96L157.4 745.96L114.09 720.96L114.09 670.96zM157.4 795.96L200.7 820.96L200.7 870.96L157.4 895.96L114.09 870.96L114.09 820.96zM200.7 -29.04L244 -4.04L244 45.96L200.7 70.96L157.4 45.96L157.4 -4.04zM200.7 270.96L244 295.96L244 345.96L200.7 370.96L157.4 345.96L157.4 295.96zM244 795.96L287.31 820.96L287.31 870.96L244 895.96L200.7 870.96L200.7 820.96zM287.31 -29.04L330.61 -4.04L330.61 45.96L287.31 70.96L244 45.96L244 -4.04zM330.61 45.96L373.91 70.96L373.91 120.96L330.61 145.96L287.31 120.96L287.31 70.96zM330.61 195.96L373.91 220.96L373.91 270.96L330.61 295.96L287.31 270.96L287.31 220.96zM373.91 -29.04L417.21 -4.04L417.21 45.96L373.91 70.96L330.61 45.96L330.61 -4.04zM417.21 195.96L460.52 220.96L460.52 270.96L417.21 295.96L373.91 270.96L373.91 220.96zM373.91 570.96L417.21 595.96L417.21 645.96L373.91 670.96L330.61 645.96L330.61 595.96zM417.21 645.96L460.52 670.96L460.52 720.96L417.21 745.96L373.91 720.96L373.91 670.96zM417.21 795.96L460.52 820.96L460.52 870.96L417.21 895.96L373.91 870.96L373.91 820.96zM503.82 45.96L547.12 70.96L547.12 120.96L503.82 145.96L460.52 120.96L460.52 70.96zM460.52 270.96L503.82 295.96L503.82 345.96L460.52 370.96L417.21 345.96L417.21 295.96zM503.82 495.96L547.12 520.96L547.12 570.96L503.82 595.96L460.52 570.96L460.52 520.96zM503.82 645.96L547.12 670.96L547.12 720.96L503.82 745.96L460.52 720.96L460.52 670.96zM547.12 420.96L590.42 445.96L590.42 495.96L547.12 520.96L503.82 495.96L503.82 445.96zM633.73 420.96L677.03 445.96L677.03 495.96L633.73 520.96L590.42 495.96L590.42 445.96zM633.73 570.96L677.03 595.96L677.03 645.96L633.73 670.96L590.42 645.96L590.42 595.96zM763.63 45.96L806.94 70.96L806.94 120.96L763.63 145.96L720.33 120.96L720.33 70.96zM720.33 120.96L763.63 145.96L763.63 195.96L720.33 220.96L677.03 195.96L677.03 145.96zM720.33 420.96L763.63 445.96L763.63 495.96L720.33 520.96L677.03 495.96L677.03 445.96zM806.94 570.96L850.24 595.96L850.24 645.96L806.94 670.96L763.63 645.96L763.63 595.96zM936.84 195.96L980.15 220.96L980.15 270.96L936.84 295.96L893.54 270.96L893.54 220.96zM980.15 420.96L1023.45 445.96L1023.45 495.96L980.15 520.96L936.84 495.96L936.84 445.96zM1110.05 495.96L1153.36 520.96L1153.36 570.96L1110.05 595.96L1066.75 570.96L1066.75 520.96zM1153.36 270.96L1196.66 295.96L1196.66 345.96L1153.36 370.96L1110.05 345.96L1110.05 295.96zM1153.36 570.96L1196.66 595.96L1196.66 645.96L1153.36 670.96L1110.05 645.96L1110.05 595.96zM1369.87 645.96L1413.17 670.96L1413.17 720.96L1369.87 745.96L1326.57 720.96L1326.57 670.96zM1456.47 345.96L1499.78 370.96L1499.78 420.96L1456.47 445.96L1413.17 420.96L1413.17 370.96z" stroke="rgba(110, 169, 42, 0.2)" stroke-width="2"></path></g><defs><mask id="SvgjsMask4090"><rect width="1440" height="800" fill="#ffffff"></rect></mask><linearGradient x1="1280.016" y1="-160" x2="159.98399999999998" y2="960" gradientUnits="userSpaceOnUse" id="SvgjsLinearGradient4091"><stop stop-color="rgba(0, 0, 0, 1)" offset="0"></stop><stop stop-color="rgba(148, 232, 0, 0.35)" offset="0.38"></stop></linearGradient></defs></svg>